v -0.500000 -0.500000 0.500000
v 0.500000 -0.500000 0.500000
v -0.500000 0.500000 0.500000
v 0.500000 0.500000 0.500000
v -0.500000 0.500000 -0.500000
v 0.500000 0.500000 -0.500000
v -0.500000 -0.500000 -0.500000
v 0.500000 -0.500000 -0.500000
v -0.500000 -0.500000 0.500000
v 0.500000 -0.500000 0.500000
v 0.500000 0.500000 0.500000
v -0.500000 0.500000 0.500000
v 0.500000 0.500000 -0.500000
v -0.500000 0.500000 -0.500000
v 0.500000 -0.500000 -0.500000
v -0.500000 -0.500000 -0.500000
v -0.500000 0.500000 0.500000
v 0.500000 0.500000 0.500000
v 0.500000 0.500000 -0.500000
v -0.500000 0.500000 -0.500000
v -0.470000 0.530000 0.470000
v 0.470000 0.530000 0.470000
v 0.470000 0.530000 -0.470000
v -0.470000 0.530000 -0.470000
v -0.470000 -0.530000 -0.470000
v 0.470000 -0.530000 -0.470000
v 0.470000 -0.530000 0.470000
v -0.470000 -0.530000 0.470000
v 0.530000 -0.470000 -0.470000
v 0.530000 -0.470000 0.470000
v 0.530000 0.470000 -0.470000
v 0.530000 0.470000 0.470000
v -0.530000 -0.470000 -0.470000
v -0.530000 -0.470000 0.470000
v -0.530000 0.470000 0.470000
v -0.530000 0.470000 -0.470000
v -0.470000 -0.470000 0.530000
v 0.470000 -0.470000 0.530000
v 0.470000 0.470000 0.530000
v -0.470000 0.470000 0.530000
v -0.470000 0.470000 -0.530000
v 0.470000 0.470000 -0.530000
v 0.470000 -0.470000 -0.530000
v -0.470000 -0.470000 -0.530000
vt 0.375000 0.000000
vt 0.625000 0.000000
vt 0.375000 0.250000
vt 0.625000 0.250000
vt 0.375000 0.500000
vt 0.625000 0.500000
vt 0.375000 0.750000
vt 0.625000 0.750000
vt 0.375000 1.000000
vt 0.625000 1.000000
vt 0.875000 0.000000
vt 0.875000 0.250000
vt 0.125000 0.000000
vt 0.125000 0.250000
vt 0.375000 0.000000
vt 0.625000 0.000000
vt 0.625000 0.250000
vt 0.375000 0.250000
vt 0.625000 0.500000
vt 0.375000 0.500000
vt 0.625000 0.750000
vt 0.375000 0.750000
vt 0.625000 1.000000
vt 0.375000 1.000000
vt 0.875000 0.000000
vt 0.875000 0.250000
vt 0.125000 0.000000
vt 0.125000 0.250000
vt 0.375000 0.250000
vt 0.625000 0.250000
vt 0.625000 0.500000
vt 0.375000 0.500000
vt 0.375000 0.250000
vt 0.625000 0.250000
vt 0.625000 0.500000
vt 0.375000 0.500000
vt 0.375000 0.750000
vt 0.625000 0.750000
vt 0.625000 1.000000
vt 0.375000 1.000000
vt 0.625000 0.000000
vt 0.875000 0.000000
vt 0.875000 0.250000
vt 0.625000 0.250000
vt 0.125000 0.000000
vt 0.375000 0.000000
vt 0.375000 0.250000
vt 0.125000 0.250000
vt 0.375000 0.000000
vt 0.625000 0.000000
vt 0.625000 0.250000
vt 0.375000 0.250000
vt 0.375000 0.500000
vt 0.625000 0.500000
vt 0.625000 0.750000
vt 0.375000 0.750000
vn 0.000000 0.000000 1.000000
vn 0.000000 0.000000 1.000000
vn 0.000000 0.000000 1.000000
vn 0.000000 0.000000 1.000000
vn 0.000000 1.000000 0.000000
vn 0.000000 1.000000 0.000000
vn 0.000000 1.000000 0.000000
vn 0.000000 1.000000 0.000000
vn 0.000000 0.000000 -1.000000
vn 0.000000 0.000000 -1.000000
vn 0.000000 0.000000 -1.000000
vn 0.000000 0.000000 -1.000000
vn 0.000000 -1.000000 0.000000
vn 0.000000 -1.000000 0.000000
vn 0.000000 -1.000000 0.000000
vn 0.000000 -1.000000 0.000000
vn 1.000000 0.000000 0.000000
vn 1.000000 0.000000 0.000000
vn 1.000000 0.000000 0.000000
vn 1.000000 0.000000 0.000000
vn -1.000000 0.000000 0.000000
vn -1.000000 0.000000 0.000000
vn -1.000000 0.000000 0.000000
vn -1.000000 0.000000 0.000000
vn 0.000000 0.000000 -1.000000
vn 0.000000 0.000000 -1.000000
vn 0.000000 0.000000 -1.000000
vn 0.000000 0.000000 -1.000000
vn 0.000000 -1.000000 0.000000
vn 0.000000 -1.000000 0.000000
vn 0.000000 -1.000000 0.000000
vn 0.000000 -1.000000 0.000000
vn 0.000000 0.000000 1.000000
vn 0.000000 0.000000 1.000000
vn 0.000000 0.000000 1.000000
vn 0.000000 0.000000 1.000000
vn 0.000000 1.000000 0.000000
vn 0.000000 1.000000 0.000000
vn 0.000000 1.000000 0.000000
vn 0.000000 1.000000 0.000000
vn -1.000000 0.000000 0.000000
vn -1.000000 0.000000 0.000000
vn -1.000000 0.000000 0.000000
vn -1.000000 0.000000 0.000000
vn 1.000000 0.000000 0.000000
vn 1.000000 0.000000 0.000000
vn 1.000000 0.000000 0.000000
vn 1.000000 0.000000 0.000000
vn 0.000000 0.000000 0.000000
vn 0.000000 0.000000 0.000000
vn 0.000000 0.000000 0.000000
vn 0.000000 0.000000 0.000000
vn 0.000000 0.000000 0.000000
vn 0.000000 0.000000 0.000000
vn 0.000000 0.000000 0.000000
vn 0.000000 0.000000 0.000000
vn 0.000000 0.000000 0.000000
vn 0.000000 0.000000 0.000000
vn 0.000000 0.000000 0.000000
vn 0.000000 0.000000 0.000000
vn 0.000000 0.000000 0.000000
vn 0.000000 0.000000 0.000000
vn 0.000000 0.000000 0.000000
vn 0.000000 0.000000 0.000000
vn 0.000000 0.707107 0.707107
vn 0.000000 0.707108 0.707106
vn 0.000000 0.707107 0.707107
vn 0.000000 0.707108 0.707106
vn 0.707107 0.707107 0.000000
vn 0.707106 0.707107 0.000000
vn 0.707107 0.707107 0.000000
vn 0.707106 0.707107 0.000000
vn 0.000000 0.707107 -0.707107
vn 0.000000 0.707108 -0.707106
vn 0.000000 0.707107 -0.707107
vn 0.000000 0.707108 -0.707106
vn -0.707107 0.707107 0.000000
vn -0.707106 0.707107 0.000000
vn -0.707107 0.707107 0.000000
vn -0.707106 0.707107 0.000000
vn 0.000000 -0.707106 -0.707107
vn 0.000000 -0.707107 -0.707106
vn 0.000000 -0.707107 -0.707107
vn 0.000000 -0.707108 -0.707106
vn 0.707107 -0.707106 0.000000
vn 0.707106 -0.707107 0.000000
vn 0.707107 -0.707107 0.000000
vn 0.707106 -0.707107 0.000000
vn 0.000000 -0.707106 0.707107
vn 0.000000 -0.707107 0.707106
vn 0.000000 -0.707107 0.707107
vn 0.000000 -0.707108 0.707106
vn -0.707107 -0.707106 0.000000
vn -0.707106 -0.707107 0.000000
vn -0.707107 -0.707107 0.000000
vn -0.707106 -0.707107 0.000000
vn 0.707107 -0.707107 0.000000
vn 0.707108 -0.707106 0.000000
vn 0.707106 0.000000 -0.707107
vn 0.707107 0.000000 -0.707106
vn 0.707107 0.000000 -0.707107
vn 0.707107 0.000000 -0.707106
vn 0.707107 0.707107 0.000000
vn 0.707108 0.707106 0.000000
vn 0.707107 0.707107 0.000000
vn 0.707108 0.707106 0.000000
vn 0.707106 0.000000 0.707107
vn 0.707107 0.000000 0.707106
vn 0.707107 0.000000 0.707107
vn 0.707107 0.000000 0.707106
vn -0.707107 -0.707107 0.000000
vn -0.707108 -0.707106 0.000000
vn -0.707106 0.000000 0.707107
vn -0.707107 0.000000 0.707106
vn -0.707107 0.000000 0.707107
vn -0.707107 0.000000 0.707106
vn -0.707107 0.707107 0.000000
vn -0.707108 0.707106 0.000000
vn -0.707107 0.707107 0.000000
vn -0.707108 0.707106 0.000000
vn -0.707106 0.000000 -0.707107
vn -0.707107 0.000000 -0.707106
vn -0.707107 0.000000 -0.707107
vn -0.707107 0.000000 -0.707106
vn 0.000000 -0.707107 0.707107
vn 0.000000 -0.707106 0.707107
vn 0.707107 0.000000 0.707107
vn 0.707106 0.000000 0.707108
vn 0.000000 0.707107 0.707107
vn 0.000000 0.707106 0.707107
vn 0.000000 0.707107 0.707107
vn 0.000000 0.707106 0.707107
vn -0.707107 0.000000 0.707107
vn -0.707106 0.000000 0.707108
vn 0.000000 0.707107 -0.707107
vn 0.000000 0.707106 -0.707107
vn 0.000000 0.707107 -0.707107
vn 0.000000 0.707106 -0.707107
vn 0.707107 0.000000 -0.707107
vn 0.707106 0.000000 -0.707108
vn 0.000000 -0.707107 -0.707107
vn 0.000000 -0.707106 -0.707107
vn -0.707107 0.000000 -0.707107
vn -0.707106 0.000000 -0.707108
f 37/49/1 38/50/2 40/52/3
f 40/52/3 38/50/2 39/51/4
f 21/33/5 22/34/6 24/36/7
f 24/36/7 22/34/6 23/35/8
f 41/53/9 42/54/10 44/56/11
f 44/56/11 42/54/10 43/55/12
f 25/37/13 26/38/14 28/40/15
f 28/40/15 26/38/14 27/39/16
f 30/41/17 29/42/18 32/44/19
f 32/44/19 29/42/18 31/43/20
f 33/45/21 34/46/22 36/48/23
f 36/48/23 34/46/22 35/47/24
f 1/15/25 3/18/26 2/16/27
f 2/16/27 3/18/26 4/17/28
f 3/18/29 5/20/30 4/17/31
f 4/17/31 5/20/30 6/19/32
f 5/20/33 7/22/34 6/19/35
f 6/19/35 7/22/34 8/21/36
f 7/22/37 1/24/38 8/21/39
f 8/21/39 1/24/38 2/23/40
f 2/16/41 4/17/42 8/25/43
f 8/25/43 4/17/42 6/26/44
f 7/27/45 5/28/46 1/15/47
f 1/15/47 5/28/46 3/18/48
f 17/29/49 12/3/50 18/30/51
f 12/3/50 11/4/52 18/30/51
f 18/30/53 11/4/54 19/31/55
f 11/4/54 13/6/56 19/31/55
f 19/31/57 13/6/58 20/32/59
f 13/6/58 14/5/60 20/32/59
f 20/32/61 14/5/62 17/29/63
f 14/5/62 12/3/64 17/29/63
f 17/29/65 18/30/66 21/33/67
f 21/33/67 18/30/66 22/34/68
f 18/30/69 19/31/70 22/34/71
f 22/34/71 19/31/70 23/35/72
f 19/31/73 20/32/74 23/35/75
f 23/35/75 20/32/74 24/36/76
f 20/32/77 17/29/78 24/36/79
f 24/36/79 17/29/78 21/33/80
f 16/7/81 15/8/82 25/37/83
f 25/37/83 15/8/82 26/38/84
f 15/8/85 10/10/86 26/38/87
f 26/38/87 10/10/86 27/39/88
f 10/10/89 9/9/90 27/39/91
f 27/39/91 9/9/90 28/40/92
f 9/9/93 16/7/94 28/40/95
f 28/40/95 16/7/94 25/37/96
f 10/2/86 15/11/85 30/41/97
f 30/41/97 15/11/85 29/42/98
f 15/11/99 13/12/100 29/42/101
f 29/42/101 13/12/100 31/43/102
f 13/12/103 11/4/104 31/43/105
f 31/43/105 11/4/104 32/44/106
f 11/4/107 10/2/108 32/44/109
f 32/44/109 10/2/108 30/41/110
f 16/13/94 9/1/93 33/45/111
f 33/45/111 9/1/93 34/46/112
f 9/1/113 12/3/114 34/46/115
f 34/46/115 12/3/114 35/47/116
f 12/3/117 14/14/118 35/47/119
f 35/47/119 14/14/118 36/48/120
f 14/14/121 16/13/122 36/48/123
f 36/48/123 16/13/122 33/45/124
f 9/1/90 10/2/89 37/49/125
f 37/49/125 10/2/89 38/50/126
f 10/2/108 11/4/107 38/50/127
f 38/50/127 11/4/107 39/51/128
f 11/4/129 12/3/130 39/51/131
f 39/51/131 12/3/130 40/52/132
f 12/3/114 9/1/113 40/52/133
f 40/52/133 9/1/113 37/49/134
f 14/5/135 13/6/136 41/53/137
f 41/53/137 13/6/136 42/54/138
f 13/6/100 15/8/99 42/54/139
f 42/54/139 15/8/99 43/55/140
f 15/8/82 16/7/81 43/55/141
f 43/55/141 16/7/81 44/56/142
f 16/7/122 14/5/121 44/56/143
f 44/56/143 14/5/121 41/53/144
